<?xml version="1.0" encoding="UTF-8"?><svg version="1.1" width="512px" height="512px" viewBox="0 0 512.0 512.0" xmlns="http://www.w3.org/2000/svg" xmlns:xlink="http://www.w3.org/1999/xlink"><defs><clipPath id="i0"><path d="M512,0 L512,512 L0,512 L0,0 L512,0 Z"></path></clipPath><clipPath id="i1"><path d="M224,0 C347.711784,0 448,100.288216 448,224 C448,347.711784 347.711784,448 224,448 C100.288216,448 0,347.711784 0,224 C0,100.288216 100.288216,0 224,0 Z"></path></clipPath><clipPath id="i2"><path d="M129,0 L129,50 L0,50 L0,0 L129,0 Z"></path></clipPath><clipPath id="i3"><path d="M50,0 C77.6142375,0 100,22.3857625 100,50 C100,77.6142375 77.6142375,100 50,100 C22.3857625,100 0,77.6142375 0,50 C0,22.3857625 22.3857625,0 50,0 Z"></path></clipPath></defs><g clip-path="url(#i0)"><g transform="translate(32.0 32.0)"><g clip-path="url(#i1)"><polygon points="0,0 448,0 448,448 0,448 0,0" stroke="none" fill="#141F2A"></polygon></g></g><g transform="translate(46.5 255.5)"><path d="M0,0.5 L418,0.5" stroke="#FFFFFF" stroke-width="16" fill="none" stroke-linecap="square" stroke-miterlimit="10"></path></g><g transform="translate(32.0 32.0)"><g clip-path="url(#i1)"><path d="M224,448 C347.711784,448 448,347.711784 448,224 C448,100.288216 347.711784,0 224,0 C100.288216,0 0,100.288216 0,224 C0,347.711784 100.288216,448 224,448 Z" stroke="#00CCAB" stroke-width="64" fill="none" stroke-miterlimit="5"></path></g></g><g transform="translate(193.0 198.0)"><g clip-path="url(#i2)"><g transform="translate(-193.0 -198.0)"><g transform="translate(206.0 206.0)"><g clip-path="url(#i3)"><polygon points="0,0 100,0 100,42 0,42 0,0" stroke="none" fill="#00CCAA"></polygon><path d="M50,100 C77.6142375,100 100,77.6142375 100,50 C100,22.3857625 77.6142375,0 50,0 C22.3857625,0 0,22.3857625 0,50 C0,77.6142375 22.3857625,100 50,100 Z" stroke="#00CCAB" stroke-width="64" fill="none" stroke-miterlimit="5"></path></g></g></g></g></g></g></svg>