<?xml version="1.0" standalone="no"?>
<!DOCTYPE svg PUBLIC "-//W3C//DTD SVG 20010904//EN"
 "http://www.w3.org/TR/2001/REC-SVG-20010904/DTD/svg10.dtd">
<svg version="1.0" xmlns="http://www.w3.org/2000/svg"
 width="512.000000pt" height="512.000000pt" viewBox="0 0 512.000000 512.000000"
 preserveAspectRatio="xMidYMid meet">
<metadata>
Created by potrace 1.14, written by Peter Selinger 2001-2017
</metadata>
<g transform="translate(0.000000,512.000000) scale(0.100000,-0.100000)"
fill="#000000" stroke="none">
<path d="M2443 4793 c9 -2 23 -2 30 0 6 3 -1 5 -18 5 -16 0 -22 -2 -12 -5z"/>
<path d="M2653 4793 c9 -2 23 -2 30 0 6 3 -1 5 -18 5 -16 0 -22 -2 -12 -5z"/>
<path d="M2320 4470 c-422 -59 -789 -235 -1089 -525 -180 -174 -290 -324 -396
-540 -104 -210 -174 -460 -191 -677 l-7 -88 715 0 714 0 22 68 c50 156 159
267 318 323 82 29 226 29 308 0 159 -56 268 -167 318 -323 l22 -68 714 0 715
0 -7 88 c-29 364 -189 757 -426 1047 -77 94 -248 258 -340 326 -232 171 -483
283 -773 345 -104 22 -153 26 -337 29 -118 2 -244 0 -280 -5z"/>
<path d="M322 2670 c0 -14 2 -19 5 -12 2 6 2 18 0 25 -3 6 -5 1 -5 -13z"/>
<path d="M4792 2670 c0 -14 2 -19 5 -12 2 6 2 18 0 25 -3 6 -5 1 -5 -13z"/>
<path d="M322 2455 c0 -16 2 -22 5 -12 2 9 2 23 0 30 -3 6 -5 -1 -5 -18z"/>
<path d="M644 2393 c27 -339 163 -697 375 -983 68 -92 232 -263 326 -340 237
-194 523 -329 844 -397 117 -25 143 -27 371 -27 228 0 254 2 371 27 384 82
687 241 958 502 180 174 290 324 396 540 104 210 174 460 191 678 l7 87 -1923
0 -1923 0 7 -87z"/>
<path d="M4792 2455 c0 -16 2 -22 5 -12 2 9 2 23 0 30 -3 6 -5 -1 -5 -18z"/>
<path d="M2438 323 c6 -2 18 -2 25 0 6 3 1 5 -13 5 -14 0 -19 -2 -12 -5z"/>
<path d="M2658 323 c6 -2 18 -2 25 0 6 3 1 5 -13 5 -14 0 -19 -2 -12 -5z"/>
</g>
</svg>
